<?xml version="1.0" standalone="no"?>
<!DOCTYPE svg PUBLIC "-//W3C//DTD SVG 20010904//EN"
 "http://www.w3.org/TR/2001/REC-SVG-20010904/DTD/svg10.dtd">
<svg version="1.0" xmlns="http://www.w3.org/2000/svg"
 width="512.000000pt" height="512.000000pt" viewBox="0 0 512.000000 512.000000"
 preserveAspectRatio="xMidYMid meet">
<metadata>
Created by potrace 1.14, written by Peter Selinger 2001-2017
</metadata>
<g transform="translate(0.000000,512.000000) scale(0.100000,-0.100000)"
fill="#000000" stroke="none">
<path d="M2245 5104 c-271 -52 -517 -234 -637 -469 -65 -126 -104 -267 -107
-387 -1 -10 -28 -30 -73 -53 -131 -66 -176 -132 -165 -244 7 -82 48 -140 121
-175 75 -36 121 -34 213 9 42 19 80 35 84 35 5 0 9 -27 9 -60 l0 -60 -128 0
c-151 0 -204 -14 -258 -68 -36 -36 -74 -100 -74 -126 0 -12 -32 -15 -197 -18
-198 -3 -198 -3 -251 -32 -60 -33 -107 -91 -124 -151 -6 -22 -11 -120 -11
-220 0 -165 2 -184 23 -232 25 -58 83 -117 139 -140 24 -11 75 -17 151 -19 63
-1 122 -3 130 -3 13 -1 15 -30 13 -208 -1 -115 -2 -221 -3 -238 -1 -24 -11
-37 -53 -67 -50 -36 -176 -154 -178 -167 -5 -39 -4 -54 7 -69 10 -14 6 -24
-25 -62 -21 -25 -48 -60 -60 -78 -16 -23 -28 -31 -41 -27 -35 11 -71 -7 -97
-49 -94 -147 -215 -459 -249 -636 -2 -14 -11 -59 -19 -100 -17 -92 -23 -128
-31 -205 -3 -33 -9 -91 -13 -130 -10 -87 -6 -536 4 -588 13 -66 19 -67 399
-67 l335 0 19 24 c13 17 25 62 36 138 9 62 21 127 26 143 5 17 19 65 31 107
13 43 24 76 26 74 3 -3 46 -220 59 -294 15 -92 69 -161 142 -182 24 -6 415
-10 1150 -10 1206 0 1151 -2 1210 53 38 35 51 69 78 200 31 150 30 142 39 197
7 42 8 43 17 20 34 -86 79 -300 87 -403 0 -10 12 -29 26 -42 l24 -25 336 0
c289 0 339 2 360 16 29 19 33 38 40 183 6 123 -3 153 -47 170 -20 7 -22 17
-24 104 l-3 97 28 15 c43 22 46 48 25 225 -24 202 -88 473 -145 605 -4 11 -20
49 -35 85 -102 249 -287 498 -494 666 l-70 57 2 235 3 236 125 1 c88 1 136 6
161 17 54 23 114 82 139 136 21 44 23 61 23 242 0 220 -8 254 -75 322 -67 66
-91 72 -306 78 l-194 5 -13 39 c-20 58 -65 108 -125 139 -51 25 -61 27 -187
27 -73 0 -133 3 -134 8 -4 31 -3 112 2 112 3 0 40 -16 82 -35 111 -51 194 -44
266 25 70 66 91 162 56 246 -24 57 -61 91 -147 135 -43 22 -78 45 -79 52 -6
165 -67 348 -160 483 -132 193 -355 337 -584 378 -108 19 -532 19 -630 0z"/>
</g>
</svg>
